# xmcd
#
# Track frame offsets:
#	150
#	16700
#	31614
#	46316
#	60593
#	75166
#	89355
#	102647
#	116977
#	131764
#	145692
#	160823
#	175804
#	189380
#	203201
#
# Disc length: 2923 seconds
#
# Revision: 0
# Processed by: cddbd v1.5.2PL0 Copyright (c) Steve Scherf et al.
# Submitted via: dBpowerAMP V4.0
#
DISCID=bc0b690f
DTITLE=TCHÊ Garotos - atitude
DYEAR=2007
DGENRE=Country
TTITLE0=Vamos Fazer Festa
TTITLE1=Vem me Dengar
TTITLE2=É Problema Meu
TTITLE3=Eu Vou Te Amar
TTITLE4=Agora pode Tudo
TTITLE5=Ela Nã Me Quer
TTITLE6=O Pau Comeu
TTITLE7=Daniela
TTITLE8=É Lá Que Mora Ela
TTITLE9=Tô Com Saudade
TTITLE10=Vida Fugida
TTITLE11=Amor Eterno
TTITLE12=Vivo Por Ai
TTITLE13=Mete Chifre Nele
TTITLE14=Menininha
EXTD=
EXTT0=
EXTT1=
EXTT2=
EXTT3=
EXTT4=
EXTT5=
EXTT6=
EXTT7=
EXTT8=
EXTT9=
EXTT10=
EXTT11=
EXTT12=
EXTT13=
EXTT14=
PLAYORDER=
